<?xml version="1.0" standalone="no"?>
<!DOCTYPE svg PUBLIC "-//W3C//DTD SVG 20010904//EN"
        "http://www.w3.org/TR/2001/REC-SVG-20010904/DTD/svg10.dtd">
<svg version="1.0" xmlns="http://www.w3.org/2000/svg"
     width="264.000000pt" height="264.000000pt" viewBox="0 0 264.000000 264.000000"
     preserveAspectRatio="xMidYMid meet">
    <metadata>
        Created by potrace 1.11, written by Peter Selinger 2001-2013
    </metadata>
    <g transform="translate(0.000000,264.000000) scale(0.100000,-0.100000)"
       fill="#000000" stroke="none">
        <path d="M310 1795 l0 -565 145 0 145 0 0 195 0 195 128 1 c175 1 227 8 307
42 81 35 136 87 173 167 22 47 26 69 26 150 0 52 -2 107 -6 121 -19 78 -86
161 -163 201 -92 48 -151 56 -462 57 l-293 2 0 -566z m537 340 c70 -30 106
-105 88 -186 -20 -89 -71 -116 -222 -119 l-113 -1 0 160 0 161 105 0 c72 0
117 -5 142 -15z"/>
        <path d="M1433 1763 c4 -343 6 -359 60 -440 99 -148 344 -150 487 -4 l25 26 3
-58 3 -57 134 0 135 0 0 425 0 425 -135 0 -135 0 -1 -232 c-1 -268 -2 -277
-36 -339 -33 -61 -80 -88 -150 -85 -63 2 -99 31 -114 92 -5 21 -9 157 -9 302
l0 262 -136 0 -135 0 4 -317z"/>
        <path d="M326 1109 c-49 -10 -95 -20 -102 -23 -11 -4 -14 -28 -14 -95 l0 -89
64 34 c73 39 159 59 210 50 78 -15 121 -95 96 -179 -12 -40 -79 -115 -205
-226 -28 -24 -76 -69 -107 -99 l-58 -54 0 -79 0 -79 305 0 305 0 0 80 0 80
-187 0 -188 1 30 26 c282 245 324 297 331 410 13 208 -177 304 -480 242z"/>
        <path d="M1165 1125 c-5 -2 -36 -8 -67 -15 l-58 -11 0 -80 0 -79 53 21 c59 25
181 34 227 18 72 -25 93 -108 41 -160 -16 -16 -37 -30 -45 -30 -9 -1 -20 -3
-26 -4 -5 -1 -41 -3 -80 -4 l-70 -1 0 -69 0 -69 88 -4 c99 -5 144 -23 167 -68
30 -58 10 -126 -48 -157 -51 -28 -193 -24 -279 9 l-68 26 0 -84 c0 -83 0 -84
28 -90 15 -3 33 -8 40 -10 7 -2 61 -7 120 -10 279 -17 425 62 439 237 6 69 -9
119 -50 165 -31 37 -100 78 -111 67 -3 -4 -6 -4 -6 -1 0 4 20 16 45 28 63 31
96 76 102 144 7 68 -9 116 -52 159 -51 51 -119 70 -260 72 -66 1 -124 1 -130
0z"/>
        <path d="M1995 1115 c-91 -27 -154 -79 -189 -154 -16 -36 -21 -65 -21 -131 1
-99 20 -146 81 -200 53 -46 98 -63 184 -66 61 -3 86 1 133 21 l59 24 -7 -37
c-30 -159 -167 -221 -342 -154 l-53 20 0 -73 c0 -60 3 -74 18 -80 52 -22 137
-34 218 -32 80 3 100 7 157 35 141 70 217 216 217 417 0 261 -132 423 -344
423 -39 0 -89 -6 -111 -13z m175 -150 c45 -41 53 -170 13 -223 -40 -53 -126
-53 -167 1 -28 38 -34 139 -9 187 10 19 29 41 43 48 31 16 96 9 120 -13z"/>
    </g>
</svg>
