<?xml version="1.0" standalone="no"?>
<!DOCTYPE svg PUBLIC "-//W3C//DTD SVG 20010904//EN"
 "http://www.w3.org/TR/2001/REC-SVG-20010904/DTD/svg10.dtd">
<svg version="1.0" xmlns="http://www.w3.org/2000/svg"
 width="512.000000pt" height="512.000000pt" viewBox="0 0 512.000000 512.000000"
 preserveAspectRatio="xMidYMid meet">
<metadata>
Created by potrace 1.11, written by Peter Selinger 2001-2013
</metadata>
<g transform="translate(0.000000,512.000000) scale(0.100000,-0.100000)"
fill="#000000" stroke="none">
<path d="M717 4583 c-3 -4 -30 -8 -60 -7 -50 2 -54 0 -53 -19 1 -12 -3 -25 -9
-29 -7 -5 -7 -11 0 -15 12 -9 12 -53 1 -71 -4 -6 -3 -12 3 -12 6 0 6 -11 1
-30 -5 -16 -5 -30 -1 -30 11 0 8 -74 -4 -82 -7 -5 -7 -10 0 -15 12 -9 12 -53
1 -71 -4 -6 -3 -12 3 -12 6 0 6 -11 1 -30 -5 -16 -5 -30 -1 -30 11 0 8 -74 -4
-82 -7 -5 -7 -10 0 -15 12 -9 12 -53 1 -71 -4 -6 -3 -12 2 -12 6 0 7 -14 2
-34 -4 -19 -4 -40 1 -47 4 -7 3 -19 -2 -25 -6 -7 -6 -15 -1 -18 9 -5 7 -57 -3
-83 -2 -7 1 -13 7 -13 7 0 7 -4 -1 -13 -8 -10 -7 -17 1 -25 9 -9 9 -12 -1 -12
-7 0 -9 -5 -4 -12 10 -16 10 -36 1 -70 -4 -17 -3 -28 4 -28 7 0 7 -4 -1 -13
-8 -10 -7 -17 1 -25 9 -9 9 -12 -1 -12 -7 0 -9 -5 -4 -12 10 -16 10 -36 1 -70
-4 -17 -3 -28 4 -28 7 0 7 -4 -1 -13 -8 -10 -7 -17 1 -25 9 -9 9 -12 -1 -12
-7 0 -9 -5 -4 -12 10 -16 10 -36 1 -70 -4 -17 -3 -28 4 -28 7 0 6 -5 -1 -14
-8 -10 -9 -16 -1 -21 7 -4 7 -12 0 -26 -6 -10 -7 -19 -2 -19 12 0 9 -73 -3
-82 -7 -5 -7 -10 0 -15 12 -9 12 -53 1 -71 -4 -6 -3 -12 3 -12 6 0 6 -11 1
-30 -5 -16 -5 -30 -1 -30 11 0 8 -74 -4 -82 -7 -5 -7 -10 0 -15 12 -9 12 -53
1 -71 -4 -6 -3 -12 3 -12 6 0 6 -11 1 -30 -5 -16 -5 -30 -1 -30 11 0 8 -74 -4
-82 -7 -5 -7 -10 0 -15 12 -9 12 -53 1 -71 -4 -6 -3 -12 3 -12 6 0 6 -11 1
-30 -5 -16 -5 -30 -1 -30 4 0 8 -7 8 -15 0 -8 -5 -15 -11 -15 -6 0 -5 -4 2 -9
8 -4 14 -12 15 -17 1 -5 72 -9 157 -8 98 0 158 -4 162 -10 5 -7 8 -7 8 -1 0 7
38 10 100 10 55 -1 105 2 112 6 14 9 18 58 6 82 -5 9 -5 17 0 17 10 0 10 75 0
85 -4 4 -4 15 0 24 10 21 9 342 -2 359 -4 6 -3 12 2 12 10 0 9 91 -2 108 -3 6
-2 13 3 17 5 3 8 14 6 25 -2 12 0 18 5 15 5 -3 11 -1 15 5 4 7 12 7 26 0 10
-6 19 -7 19 -2 0 4 18 8 40 7 22 0 40 -3 40 -7 0 -4 10 -4 23 1 14 5 30 5 40
0 10 -6 17 -6 17 -1 0 5 13 9 30 8 16 -1 30 -4 30 -8 0 -4 10 -4 23 0 23 9 69
7 94 -2 8 -3 12 -2 9 2 -3 5 22 8 54 6 42 -1 58 2 53 10 -4 6 1 5 10 -3 14
-11 17 -11 17 0 0 11 2 11 10 -1 5 -8 10 -10 10 -3 0 6 8 10 18 9 9 -2 20 2
24 8 5 8 8 7 8 -2 0 -8 5 -10 13 -5 6 4 21 9 32 11 11 2 27 5 35 7 8 2 21 4
28 4 8 1 10 6 6 14 -6 10 -4 10 7 0 18 -18 30 -16 22 4 -4 11 -3 14 6 9 6 -4
19 -2 28 6 14 11 16 11 9 0 -7 -11 -4 -12 11 -3 11 6 24 7 28 3 5 -4 6 0 3 8
-4 10 1 16 13 18 11 1 28 3 38 4 11 1 17 6 15 10 -3 4 0 8 6 8 6 0 8 5 4 12
-5 7 -3 8 5 4 7 -5 21 0 31 9 10 9 24 14 31 9 8 -4 10 -3 5 4 -4 7 8 21 28 34
20 13 36 29 36 36 0 8 5 10 12 6 7 -5 9 -2 5 9 -4 11 -2 14 9 10 9 -3 14 0 12
8 -2 8 3 13 10 11 6 -1 11 1 10 5 -3 16 15 43 25 36 6 -4 7 -1 2 6 -4 7 3 23
16 38 13 15 19 23 13 20 -6 -3 -11 0 -11 8 0 8 4 12 9 9 4 -3 8 0 8 6 0 6 5 8
11 4 8 -4 8 0 0 15 -9 16 -9 20 2 15 10 -4 14 3 13 23 0 20 4 27 14 25 12 -3
12 -1 3 9 -13 13 -6 42 9 33 6 -4 5 3 -1 15 -9 16 -9 21 1 21 9 0 9 3 -2 10
-12 8 -12 10 5 10 17 0 17 2 5 10 -12 8 -13 11 -1 19 9 6 10 10 2 16 -9 5 -9
10 0 21 9 11 8 14 -2 14 -9 0 -10 3 -3 8 14 9 14 72 0 72 -8 0 -8 3 -1 8 6 4
11 16 11 27 0 11 -5 23 -11 27 -6 5 -4 8 5 8 13 0 13 1 0 10 -13 9 -13 10 0
10 11 1 10 4 -5 16 -14 11 -16 18 -7 21 6 3 9 10 5 16 -4 7 -9 21 -11 32 -6
35 -7 40 -13 50 -3 6 -5 17 -5 25 1 8 -6 22 -14 30 -9 8 -10 11 -3 6 19 -12
16 -2 -7 24 -11 12 -17 26 -15 31 3 4 0 11 -6 15 -8 5 -9 3 -4 -6 5 -8 4 -11
-2 -7 -6 4 -14 19 -17 33 -8 31 -30 56 -41 46 -4 -4 -6 -2 -5 3 5 21 0 36 -10
30 -6 -3 -10 4 -11 17 0 13 -3 18 -5 11 -3 -7 -18 1 -40 23 -20 21 -38 32 -46
28 -8 -5 -9 -2 -5 10 4 10 3 15 -3 11 -6 -3 -10 0 -10 7 0 10 -2 10 -9 -1 -7
-11 -10 -10 -15 6 -3 11 -12 20 -19 20 -22 1 -41 8 -55 21 -8 7 -17 10 -22 7
-5 -3 -10 0 -12 6 -2 6 -16 12 -31 12 -15 0 -24 3 -22 7 3 4 -2 11 -11 14 -10
4 -13 2 -8 -7 6 -8 3 -8 -9 1 -9 8 -25 11 -38 7 -16 -5 -19 -4 -14 6 6 9 3 11
-8 6 -9 -3 -23 1 -32 9 -8 9 -15 11 -15 5 0 -13 -22 -10 -33 4 -6 6 -10 6 -14
-2 -3 -10 -9 -9 -20 3 -12 11 -18 12 -23 4 -4 -7 -10 -8 -13 -3 -3 4 -37 8
-76 8 -40 -1 -67 3 -64 8 3 5 -3 4 -14 -2 -14 -7 -24 -7 -33 2 -7 7 -10 8 -7
2 3 -6 -28 -10 -84 -10 -49 0 -89 3 -89 6 0 3 -7 6 -15 6 -8 0 -12 -3 -10 -6
2 -4 -19 -6 -46 -6 -27 0 -49 3 -49 8 0 4 -6 5 -12 0 -17 -10 -47 -10 -76 -1
-13 5 -21 4 -18 0 6 -11 -57 -8 -74 3 -7 5 -11 4 -8 -1 4 -5 -32 -9 -83 -9
-49 0 -89 3 -89 6 0 3 -7 6 -15 6 -8 0 -12 -3 -10 -7 6 -9 -89 -6 -96 4 -4 4
-9 4 -12 -1z m527 -413 c17 -6 26 -6 26 0 0 6 5 10 11 10 5 0 8 -3 6 -7 -3 -5
6 -8 19 -8 13 0 24 3 24 8 0 4 5 7 11 7 5 0 8 -4 5 -9 -4 -5 4 -7 16 -3 16 4
19 2 14 -9 -4 -8 0 -5 8 5 12 15 16 16 17 5 0 -10 2 -10 6 -2 3 9 10 10 24 3
14 -8 19 -7 19 2 0 9 3 9 10 -2 6 -9 10 -11 10 -3 0 7 7 10 15 7 8 -4 12 -11
9 -18 -3 -6 0 -4 8 4 13 16 52 24 43 10 -3 -5 -1 -11 5 -15 5 -3 10 2 10 11 0
14 3 13 20 -6 11 -13 20 -19 20 -13 0 5 7 10 15 10 8 0 11 -5 8 -10 -4 -6 0
-8 10 -4 10 4 17 2 17 -4 0 -6 7 -8 15 -5 9 3 18 -1 21 -9 4 -8 16 -15 28 -15
17 0 18 -2 6 -10 -12 -8 -12 -10 -1 -10 19 0 68 -53 63 -68 -2 -7 1 -12 6 -12
5 0 13 -7 16 -16 4 -10 2 -13 -7 -9 -6 4 -1 -3 12 -14 21 -19 21 -21 5 -21
-16 0 -17 -2 -4 -10 8 -5 11 -10 7 -10 -5 0 -5 -5 -1 -12 11 -17 13 -69 3 -62
-13 7 -7 -19 6 -28 6 -5 6 -11 -2 -19 -6 -6 -9 -18 -6 -25 3 -8 0 -14 -6 -14
-6 0 -11 -5 -11 -11 0 -5 5 -7 12 -3 7 5 8 3 2 -7 -5 -8 -9 -17 -9 -21 0 -3
-9 -17 -21 -30 -11 -13 -18 -30 -16 -37 3 -8 0 -11 -6 -7 -6 3 -13 -3 -17 -13
-4 -12 -12 -18 -21 -14 -9 3 -14 -1 -14 -11 0 -9 -6 -16 -12 -15 -19 3 -49
-12 -43 -22 3 -4 -4 -6 -15 -4 -11 2 -20 -1 -20 -6 0 -6 -4 -8 -9 -4 -5 3 -12
1 -15 -4 -8 -13 -57 -11 -50 3 3 6 -1 3 -9 -7 -13 -15 -19 -16 -36 -7 -15 7
-21 7 -21 0 0 -7 -7 -7 -21 1 -16 8 -20 8 -14 0 4 -8 -1 -10 -17 -6 -46 12
-63 12 -70 2 -4 -7 -12 -6 -22 2 -11 10 -16 10 -16 2 0 -9 -5 -9 -21 0 -15 8
-19 8 -15 0 4 -6 0 -11 -9 -11 -9 0 -14 4 -11 8 3 5 -1 9 -9 9 -8 0 -15 -5
-15 -10 0 -5 -6 -4 -14 2 -9 8 -15 8 -18 2 -1 -6 -12 -8 -23 -5 -20 5 -21 12
-20 137 1 73 -3 140 -7 150 -5 9 -5 17 0 17 12 0 10 93 -3 102 -6 5 -6 8 2 8
12 0 12 17 0 38 -5 6 -4 12 0 12 5 0 9 23 9 50 0 28 -5 50 -11 50 -7 0 -7 3 0
8 6 4 11 16 11 27 -1 14 6 20 22 19 12 0 22 3 22 8 0 10 3 10 34 -2z"/>
<path d="M2843 4044 c4 -8 -3 -12 -21 -13 -50 -1 -61 -4 -55 -15 12 -19 14
-68 2 -60 -8 4 -8 1 -1 -12 5 -11 8 -38 7 -61 -2 -26 2 -43 9 -43 6 0 5 -4 -3
-9 -9 -6 -12 -23 -7 -65 4 -39 2 -55 -5 -50 -8 4 -8 0 0 -14 13 -25 14 -35 2
-27 -6 3 -6 -6 -1 -25 5 -16 6 -30 3 -30 -3 0 1 -8 8 -17 12 -15 12 -16 -4
-10 -11 4 -16 3 -12 -4 4 -6 8 -39 10 -75 2 -46 0 -63 -8 -58 -7 3 -3 -2 7
-10 11 -9 15 -16 8 -16 -7 0 -10 -24 -9 -75 1 -42 6 -75 12 -75 5 0 4 -4 -4
-9 -10 -6 -12 -20 -8 -45 3 -20 2 -34 -3 -31 -5 3 -5 -8 0 -25 5 -16 6 -30 3
-30 -3 0 1 -8 8 -17 12 -15 12 -16 -3 -11 -14 6 -15 2 -9 -20 5 -15 7 -36 5
-47 -2 -10 3 -26 9 -34 7 -8 7 -12 2 -9 -6 4 -17 3 -25 -3 -12 -7 -12 -9 4 -9
14 0 17 -5 13 -23 -4 -12 -2 -29 3 -37 6 -9 5 -17 -3 -22 -9 -6 -8 -10 3 -18
8 -5 11 -10 5 -10 -5 0 -3 -5 5 -10 12 -8 12 -10 -5 -10 -18 -1 -18 -2 -3 -11
9 -5 15 -16 12 -23 -3 -8 -1 -17 5 -21 7 -4 8 -12 2 -23 -6 -12 -5 -24 5 -36
7 -10 11 -23 8 -27 -3 -5 0 -9 7 -9 7 0 10 -11 7 -29 -3 -21 -1 -28 9 -24 7 3
13 -2 13 -11 0 -9 4 -16 10 -16 5 0 9 -3 9 -7 -5 -29 3 -53 17 -53 8 0 12 -4
9 -10 -3 -5 -1 -10 4 -10 6 0 11 -9 11 -20 0 -14 5 -18 18 -13 9 3 14 3 10 -1
-6 -7 26 -46 38 -46 12 0 33 -28 26 -35 -4 -4 -2 -6 3 -5 21 5 36 0 30 -10 -9
-14 9 -12 24 3 10 10 11 9 5 -6 -5 -13 -2 -16 12 -10 13 5 15 3 9 -7 -6 -10
-4 -12 8 -7 10 4 17 2 17 -4 0 -6 7 -9 15 -5 8 3 15 2 15 -3 0 -5 9 -11 20
-14 11 -3 18 -1 14 4 -3 5 0 9 5 9 6 0 11 -7 11 -15 0 -8 5 -15 11 -15 5 0 8
4 5 9 -4 5 3 7 14 4 11 -3 17 -9 15 -13 -3 -5 7 -5 22 -1 32 9 56 4 48 -10 -4
-5 1 -6 9 -3 9 3 13 11 9 18 -3 6 -1 6 8 -2 17 -16 32 -16 23 1 -6 10 -4 10 7
0 17 -17 32 -17 23 0 -4 6 3 3 15 -7 14 -13 20 -15 16 -5 -4 10 3 14 27 13 18
-1 36 4 40 10 6 8 8 7 8 -1 0 -7 7 -10 15 -7 8 4 13 9 11 13 -2 3 11 6 30 5
19 -1 31 2 28 7 -3 5 4 9 15 9 12 0 21 5 21 11 0 8 6 7 17 -2 11 -10 14 -10 9
-1 -4 7 -1 12 9 12 8 0 18 6 21 13 2 7 13 13 24 14 11 1 33 16 50 33 16 17 30
27 30 23 0 -4 7 1 16 12 8 11 18 19 22 18 4 -2 7 0 7 5 1 10 55 67 55 57 0 -5
7 0 15 11 14 18 14 18 10 -3 -2 -13 0 -23 5 -23 4 0 5 -15 1 -32 -7 -37 -6
-119 1 -140 5 -11 44 -14 194 -13 122 1 192 -3 196 -9 5 -8 8 -8 8 0 0 6 24
10 60 9 44 -1 59 2 56 11 -3 7 -2 15 1 18 11 11 9 136 -2 136 -5 0 -4 4 4 9 9
6 10 11 2 15 -6 4 -8 12 -5 18 10 16 10 138 1 138 -5 0 -5 5 -2 10 12 19 12
130 1 130 -7 0 -8 3 -1 8 12 9 14 92 2 92 -4 0 -5 5 -2 10 12 19 12 130 1 130
-7 0 -8 3 -1 8 12 9 14 92 2 92 -4 0 -5 5 -2 10 12 19 12 130 1 130 -7 0 -8 3
-1 8 12 9 14 92 2 92 -4 0 -5 5 -2 10 12 19 12 130 1 130 -7 0 -8 3 -1 8 12 9
14 92 2 92 -4 0 -5 5 -2 10 12 19 12 130 1 130 -6 0 -5 4 3 9 9 6 10 11 2 15
-6 4 -8 12 -5 18 10 15 11 138 2 138 -5 0 -7 3 -7 8 3 19 -2 23 -16 12 -12
-10 -16 -9 -21 4 -3 9 -10 13 -15 10 -5 -3 -6 -11 -2 -17 4 -7 0 -7 -10 1 -9
8 -21 11 -27 7 -6 -4 -18 -1 -27 7 -11 8 -14 9 -10 1 6 -9 -3 -11 -33 -8 -24
3 -38 0 -35 -5 7 -11 -23 -2 -42 12 -7 5 -14 5 -18 -2 -3 -5 -11 -10 -16 -10
-6 0 -7 5 -3 12 5 7 3 8 -7 2 -21 -13 -101 -15 -93 -2 5 7 2 8 -7 2 -8 -4 -25
-9 -39 -9 -14 0 -31 -5 -39 -9 -9 -6 -12 -5 -8 1 4 6 0 14 -9 17 -10 4 -13 2
-8 -6 5 -8 1 -9 -12 -4 -10 4 -15 4 -11 0 4 -4 1 -14 -6 -22 -9 -12 -9 -16 1
-19 6 -3 9 -9 6 -14 -11 -18 -11 -129 0 -129 6 0 5 -4 -3 -9 -9 -6 -10 -11 -2
-15 6 -4 8 -12 5 -18 -10 -16 -10 -138 -1 -138 5 0 5 -5 2 -10 -12 -19 -12
-130 -1 -130 7 0 8 -3 1 -8 -12 -9 -14 -92 -2 -92 4 0 5 -5 2 -10 -11 -18 -12
-130 -1 -130 6 0 6 -4 -1 -11 -8 -8 -8 -20 -2 -36 5 -13 5 -22 0 -19 -4 3 -8
-8 -7 -24 1 -17 5 -30 9 -30 4 0 -1 -10 -12 -21 -18 -20 -19 -24 -6 -42 13
-18 13 -23 -3 -41 -12 -14 -13 -17 -2 -11 12 6 13 5 3 -6 -7 -7 -13 -23 -13
-36 0 -13 -4 -23 -8 -23 -8 0 -10 -7 -14 -50 -1 -11 -8 -18 -14 -16 -7 3 -15
-2 -18 -10 -4 -10 -1 -13 7 -9 6 4 4 0 -5 -8 -10 -8 -18 -20 -18 -26 0 -7 -5
-9 -12 -5 -8 5 -9 2 -5 -10 4 -9 3 -14 -2 -11 -5 3 -16 -4 -24 -15 -7 -11 -17
-17 -20 -13 -4 3 -7 1 -7 -6 0 -7 -5 -9 -12 -5 -7 5 -9 2 -6 -8 4 -8 0 -15 -8
-15 -7 0 -11 5 -8 11 3 6 0 4 -8 -4 -12 -14 -24 -19 -55 -24 -7 -1 -16 -5 -19
-9 -12 -12 -26 -8 -18 6 6 9 4 9 -7 1 -8 -6 -26 -10 -41 -9 -16 1 -28 -3 -28
-9 0 -6 -5 -3 -11 7 -9 15 -13 16 -27 5 -13 -11 -15 -11 -10 3 4 9 1 16 -8 16
-7 0 -11 -4 -8 -9 3 -4 -2 -5 -10 -2 -9 3 -13 10 -10 15 3 5 -1 6 -9 3 -8 -3
-17 2 -20 10 -4 9 -13 16 -22 16 -8 0 -15 7 -15 15 0 8 -9 19 -20 25 -11 6
-20 19 -20 28 0 10 -5 23 -12 30 -9 9 -9 12 1 12 7 0 9 5 6 10 -4 6 -10 8 -14
6 -4 -3 -6 8 -5 25 1 16 -3 29 -9 29 -8 0 -8 3 -2 8 14 10 17 32 4 32 -8 0 -8
4 0 14 8 9 8 16 2 20 -5 4 -8 18 -5 31 2 14 -1 35 -7 46 -6 13 -7 19 -1 15 13
-8 10 102 -2 123 -6 10 -5 12 2 7 14 -8 12 20 -2 43 -6 10 -5 12 3 7 14 -9 11
30 -3 53 -6 9 -5 12 1 8 7 -4 10 41 9 133 -1 77 2 140 7 140 4 0 4 8 0 18 -10
21 -10 53 0 70 5 6 4 12 0 12 -5 0 -8 22 -8 49 0 27 2 48 6 46 3 -2 6 2 6 10
0 8 -3 15 -6 15 -3 0 -6 33 -6 72 0 76 -9 89 -44 64 -11 -8 -13 -8 -7 2 4 6 3
12 -1 12 -5 0 -15 -6 -22 -12 -10 -11 -11 -9 -5 7 7 18 6 18 -9 6 -14 -11 -20
-11 -34 0 -10 9 -14 9 -10 2 6 -9 -3 -11 -33 -8 -24 3 -38 0 -35 -5 7 -11 -23
-2 -42 12 -7 5 -14 5 -18 -2 -3 -5 -11 -10 -16 -10 -6 0 -7 5 -3 12 5 7 3 8
-7 2 -21 -13 -101 -15 -93 -2 5 7 2 8 -7 2 -22 -13 -42 -14 -58 -1 -10 8 -13
8 -8 1z m1057 -914 c0 -5 -5 -10 -11 -10 -5 0 -7 5 -4 10 3 6 8 10 11 10 2 0
4 -4 4 -10z"/>
<path d="M1048 2201 c-3 -8 -64 -17 -78 -11 -14 5 -128 4 -124 -1 2 -4 -3 -9
-11 -13 -8 -3 -17 0 -21 6 -5 7 -2 8 6 3 8 -5 11 -4 6 3 -4 6 -13 9 -21 6 -8
-4 -12 -11 -8 -17 4 -6 1 -7 -8 -2 -7 5 -22 10 -31 10 -13 1 -15 -2 -7 -11 9
-11 5 -11 -20 -4 -19 5 -31 5 -31 -1 0 -5 -5 -9 -11 -9 -5 0 -7 5 -4 10 10 17
-7 11 -22 -7 -8 -11 -11 -12 -7 -3 7 13 5 13 -9 1 -9 -7 -17 -10 -17 -6 0 4
-8 1 -17 -6 -9 -8 -14 -9 -10 -3 3 6 0 11 -8 11 -8 0 -12 -4 -10 -8 7 -11 -23
-19 -42 -12 -12 5 -14 3 -8 -8 8 -12 6 -12 -8 0 -14 11 -18 11 -23 -4 -5 -13
-9 -14 -15 -3 -7 10 -9 11 -9 0 0 -7 -4 -10 -10 -7 -5 3 -10 2 -10 -3 0 -5
-11 -8 -24 -7 -19 2 -23 -1 -19 -13 5 -11 3 -13 -6 -7 -10 5 -11 2 -6 -14 4
-13 1 -29 -7 -38 -7 -9 -8 -14 -2 -10 8 5 11 -6 10 -36 -1 -23 3 -48 8 -56 8
-11 8 -13 -2 -7 -14 9 -14 9 -3 -32 6 -18 6 -30 1 -27 -5 3 -11 1 -15 -5 -3
-5 -1 -10 4 -10 6 0 11 -5 11 -11 0 -5 -6 -7 -12 -3 -7 4 -5 -1 4 -12 11 -12
14 -24 8 -33 -4 -8 -6 -21 -3 -28 5 -12 7 -12 14 -1 7 10 9 10 9 0 0 -10 3
-10 14 0 8 7 12 16 9 20 -2 4 4 5 13 1 13 -5 15 -3 9 7 -6 10 -4 12 7 8 8 -4
22 2 31 12 10 12 24 17 39 13 16 -3 19 -2 10 5 -11 7 -10 10 3 16 9 3 21 4 26
0 5 -3 9 0 9 6 0 6 5 8 10 5 6 -3 13 1 16 10 6 13 8 14 15 3 7 -10 9 -10 9 0
0 6 9 12 21 12 11 0 18 4 14 9 -3 6 6 8 20 5 14 -2 25 0 25 5 0 5 11 8 25 6
14 -1 25 1 25 6 0 5 7 5 17 2 12 -5 14 -3 8 7 -6 9 -4 11 6 5 19 -12 49 -14
49 -3 0 5 9 4 20 -2 15 -8 20 -8 20 2 0 9 3 9 10 -2 5 -8 10 -11 10 -6 0 5 10
1 22 -10 19 -16 20 -16 9 -1 -12 15 -12 17 3 11 9 -3 16 -10 16 -15 0 -4 6 -6
14 -3 8 3 17 0 21 -5 3 -6 11 -9 16 -6 5 4 9 -2 9 -11 0 -10 3 -15 6 -11 3 3
17 -5 31 -19 13 -13 28 -24 33 -24 4 0 6 -10 2 -22 -3 -14 -2 -19 6 -14 12 7
16 -5 13 -33 -2 -8 2 -10 10 -6 7 5 10 3 7 -6 -3 -8 -1 -22 4 -31 6 -12 5 -18
-2 -18 -7 0 -8 -7 -3 -17 8 -16 9 -39 3 -53 -1 -3 -3 -14 -5 -25 -9 -49 -12
-59 -23 -63 -6 -2 -8 -10 -5 -18 3 -7 -2 -17 -11 -20 -9 -3 -13 -10 -10 -15 3
-5 1 -9 -4 -9 -5 0 -15 -11 -22 -25 -7 -13 -18 -21 -23 -18 -6 4 -8 0 -4 -10
6 -16 -3 -22 -26 -18 -5 1 -6 -3 -2 -8 3 -6 -4 -15 -15 -21 -11 -6 -18 -15
-15 -20 3 -5 -6 -12 -20 -16 -14 -3 -24 -9 -21 -11 8 -9 -23 -35 -34 -28 -6 4
-7 -1 -3 -11 4 -11 2 -15 -4 -11 -5 3 -27 -14 -48 -38 -20 -25 -41 -42 -46
-40 -4 3 -11 -4 -14 -16 -4 -11 -9 -18 -12 -15 -3 3 -16 -6 -29 -19 -13 -14
-28 -25 -34 -25 -9 0 -14 -14 -11 -32 0 -4 -7 -4 -16 -1 -10 4 -14 2 -10 -4 8
-13 -20 -26 -36 -16 -7 4 -6 -1 2 -10 9 -11 10 -17 2 -17 -6 0 -20 -9 -31 -20
-11 -11 -20 -17 -20 -12 0 4 -9 -8 -20 -26 -13 -22 -26 -32 -35 -28 -8 3 -14
2 -12 -2 3 -9 -46 -58 -55 -55 -5 2 -8 -5 -8 -14 0 -9 -3 -14 -6 -10 -10 9
-47 -30 -39 -42 3 -6 2 -11 -4 -11 -9 0 -7 -37 4 -67 2 -7 1 -12 -3 -12 -19 3
-25 -2 -12 -11 12 -8 13 -12 2 -19 -11 -7 -10 -9 3 -15 9 -3 13 -11 9 -17 -9
-16 -11 -100 -2 -105 4 -3 3 -14 -2 -25 -9 -15 -7 -19 5 -19 8 0 15 -5 15 -11
0 -8 4 -8 14 0 10 8 16 9 21 1 3 -6 12 -7 18 -3 15 10 67 12 67 3 0 -4 7 -7
15 -7 8 0 15 3 15 7 0 5 98 5 110 0 3 -1 10 -1 15 0 31 6 85 7 85 1 0 -4 7 -8
15 -8 8 0 15 3 15 6 0 4 20 7 45 7 25 0 45 -4 45 -9 0 -4 6 -5 13 0 17 11 60
11 75 0 6 -5 12 -6 12 -1 0 8 59 11 85 4 6 -1 15 -1 20 0 38 8 45 8 50 -1 4
-5 11 -7 16 -3 15 9 89 13 89 5 0 -4 7 -8 15 -8 8 0 15 3 15 6 0 4 20 7 45 7
25 0 45 -4 45 -9 0 -4 6 -5 13 0 17 11 60 11 75 0 6 -5 12 -5 12 -1 0 5 25 9
55 8 l55 -1 -16 25 c-9 13 -12 22 -6 18 14 -9 22 20 9 33 -7 7 -8 11 0 11 10
0 9 53 -2 71 -4 5 -2 9 4 9 7 0 7 9 0 27 -7 19 -7 29 0 31 8 3 8 10 1 23 -8
13 -7 19 0 19 6 0 3 11 -6 25 -16 25 -42 36 -28 13 5 -9 2 -9 -9 1 -14 11 -20
11 -32 1 -12 -10 -16 -9 -21 4 -3 9 -10 13 -15 10 -5 -3 -6 -11 -2 -17 4 -7 0
-7 -10 1 -9 8 -21 11 -27 7 -6 -4 -18 -1 -27 7 -11 8 -14 9 -10 1 6 -9 -3 -11
-33 -8 -24 3 -38 0 -35 -5 7 -11 -23 -2 -42 12 -7 5 -14 5 -18 -2 -3 -5 -11
-10 -16 -10 -6 0 -7 5 -3 12 5 7 3 8 -7 2 -21 -13 -101 -15 -93 -2 5 7 2 8 -7
2 -8 -4 -25 -9 -39 -9 -14 0 -31 -5 -39 -9 -9 -6 -12 -5 -8 1 4 6 0 13 -8 17
-8 3 -17 1 -20 -5 -4 -5 -11 -7 -16 -4 -5 4 -9 1 -9 -6 0 -7 -7 -4 -16 7 -8
10 -13 14 -9 7 7 -15 -46 -13 -57 2 -5 6 -8 5 -8 -4 0 -11 -3 -11 -15 -1 -13
11 -14 10 -8 -6 6 -16 5 -17 -9 -4 -11 11 -12 17 -4 22 6 4 11 13 11 20 0 7 6
14 13 14 6 1 20 2 30 3 13 1 14 3 4 10 -10 6 -8 10 8 14 14 4 19 10 14 18 -5
9 -2 10 9 6 11 -4 17 -1 17 8 0 8 6 14 13 12 6 -1 11 4 10 11 -2 6 3 12 10 12
7 0 27 16 46 35 19 20 38 32 44 28 7 -4 5 2 -3 12 -8 10 -10 16 -3 12 7 -4 18
2 28 15 8 13 18 22 20 21 13 -7 25 -2 22 10 -1 6 4 11 11 10 6 -2 12 4 12 13
0 8 5 12 10 9 6 -3 10 -1 10 5 0 6 5 8 10 5 6 -4 10 -3 9 2 -1 4 -1 15 0 23 1
13 2 13 11 0 8 -13 10 -12 10 2 0 10 18 31 40 47 21 15 36 31 33 35 -3 3 1 6
10 6 10 0 17 7 17 16 0 8 5 12 10 9 6 -3 10 -1 10 5 0 6 5 8 10 5 6 -4 9 -1 8
7 -2 7 3 12 11 10 12 -3 12 -1 0 14 -8 10 -9 16 -4 13 6 -3 28 12 50 34 22 22
34 37 28 33 -21 -12 -15 1 16 35 17 19 27 38 23 47 -4 11 -2 13 9 7 11 -7 11
-5 -1 10 -8 10 -10 16 -3 12 6 -4 14 -3 18 3 3 5 1 10 -5 10 -6 0 -8 5 -5 10
4 6 11 7 17 4 8 -5 9 -1 4 11 -4 11 -2 22 6 27 11 6 10 8 0 8 -7 0 -10 5 -7
10 4 6 12 7 18 4 9 -5 9 -4 1 5 -7 8 -8 27 -4 51 4 21 3 46 -3 55 -6 12 -6 16
1 11 13 -8 8 24 -13 83 -10 30 -11 40 -2 36 7 -4 5 0 -5 7 -12 10 -14 18 -6
31 5 10 6 16 1 15 -4 -2 -9 1 -10 6 -1 5 -6 12 -11 15 -6 3 -12 12 -14 20 -2
8 -15 26 -30 41 -16 15 -28 33 -28 39 0 7 -4 9 -10 6 -9 -6 -14 8 -11 27 0 5
-2 7 -7 6 -11 -4 -72 26 -72 34 0 5 -7 8 -15 8 -9 0 -18 6 -21 13 -3 8 -15 13
-27 12 -11 -1 -32 4 -46 11 -13 7 -29 10 -34 7 -6 -3 -7 -1 -4 4 4 6 0 13 -7
16 -8 3 -17 1 -20 -6 -3 -8 -5 -8 -5 2 -1 11 -4 11 -17 1 -8 -8 -14 -9 -13 -4
4 20 -2 24 -21 14 -15 -8 -20 -8 -20 2 0 9 -3 9 -11 1 -15 -15 -39 -5 -32 13
3 8 3 14 0 14 -3 0 -7 -4 -9 -9z"/>
<path d="M2454 2202 c7 -11 -3 -13 -47 -10 -31 2 -54 1 -51 -3 2 -4 -3 -10
-12 -13 -8 -3 -12 -2 -9 4 3 6 -1 10 -10 10 -10 0 -13 -5 -9 -12 5 -7 3 -8 -7
-2 -24 15 -41 14 -35 -2 4 -10 2 -13 -6 -8 -16 10 -78 12 -78 2 0 -4 -9 -5
-20 -3 -11 2 -20 -2 -20 -8 0 -7 -4 -6 -10 3 -6 10 -10 11 -10 3 0 -7 -11 -13
-24 -13 -40 0 -86 -12 -80 -21 3 -5 2 -9 -3 -9 -9 0 -9 -227 0 -237 4 -3 2
-14 -4 -24 -7 -13 -6 -19 1 -19 6 0 8 -4 5 -10 -3 -5 -1 -10 4 -10 6 0 11 5
11 11 0 5 5 7 10 4 6 -3 10 -1 10 5 0 7 7 9 16 6 8 -3 13 -2 10 3 -3 5 1 11 9
15 8 3 15 1 15 -5 0 -6 5 -7 10 -4 6 4 7 12 3 18 -4 7 2 5 12 -3 10 -8 16 -10
12 -4 -4 8 6 14 27 18 19 4 37 12 39 19 4 9 6 9 6 -1 1 -9 7 -10 19 -4 9 5 26
8 37 8 11 -1 26 6 33 14 12 13 13 13 8 -4 -6 -16 -4 -17 10 -6 13 12 17 11 25
-1 6 -10 9 -11 9 -1 0 7 4 11 9 7 5 -3 12 -1 16 5 4 6 12 7 24 0 12 -6 22 -5
29 2 9 9 12 9 12 1 0 -7 12 -11 28 -9 15 1 40 -4 56 -12 16 -7 25 -9 21 -3
-10 17 66 -30 102 -63 24 -21 30 -33 23 -41 -7 -9 -6 -16 5 -25 17 -14 21 -45
4 -34 -8 4 -8 1 -1 -12 15 -30 -1 -99 -21 -87 -7 4 -6 -1 2 -10 9 -12 10 -17
2 -17 -7 0 -9 -5 -5 -12 5 -8 2 -9 -9 -5 -12 4 -17 1 -17 -9 0 -10 -6 -14 -15
-10 -8 3 -14 2 -12 -2 1 -4 -1 -7 -5 -7 -4 0 -14 -9 -23 -20 -9 -11 -13 -13
-9 -5 7 13 5 13 -9 1 -9 -7 -17 -10 -17 -5 0 4 -6 0 -13 -11 -11 -14 -16 -15
-22 -5 -6 9 -4 11 5 5 9 -6 11 -4 6 4 -6 10 -12 9 -24 -2 -21 -16 -65 -21 -56
-5 5 7 2 8 -7 2 -8 -5 -23 -7 -34 -6 -17 2 -17 1 -5 -7 9 -7 10 -11 3 -11 -6
0 -14 4 -17 8 -3 5 -25 7 -51 6 -32 -2 -43 1 -38 9 4 8 1 7 -9 -1 -9 -7 -27
-11 -41 -8 -16 3 -31 -2 -39 -12 -10 -12 -10 -14 0 -8 7 4 12 1 12 -9 0 -10
-5 -13 -12 -9 -9 5 -9 2 1 -9 10 -13 10 -17 1 -17 -10 0 -10 -3 -1 -14 9 -11
9 -15 -1 -19 -10 -4 -10 -6 1 -6 10 -1 9 -7 -5 -28 -12 -19 -13 -24 -3 -16 13
10 15 6 15 -27 -1 -22 -5 -40 -11 -40 -5 0 -3 -5 5 -10 12 -8 12 -12 2 -18 -9
-6 -6 -12 12 -21 13 -8 29 -11 34 -7 6 3 13 0 15 -6 4 -9 8 -9 14 -3 9 12 83
15 83 4 0 -4 14 -4 30 1 21 6 30 5 30 -3 0 -7 4 -6 10 3 7 11 10 11 10 2 0 -7
4 -11 9 -7 5 3 12 2 15 -3 3 -5 19 -7 37 -4 18 3 29 1 26 -5 -3 -5 7 -8 23 -7
17 1 31 -4 34 -12 3 -8 17 -14 31 -14 15 0 24 -4 20 -10 -3 -5 1 -10 10 -10
10 0 13 -5 9 -12 -5 -8 -2 -9 9 -5 9 3 16 3 16 -1 -2 -16 14 -51 21 -47 4 3
11 -2 14 -11 4 -10 2 -13 -7 -8 -9 5 -9 4 1 -7 6 -7 12 -22 12 -34 0 -12 6
-27 13 -34 7 -8 7 -11 1 -8 -7 4 -14 -2 -17 -13 -3 -11 -2 -18 3 -15 4 2 8 -7
8 -21 0 -14 -6 -28 -13 -30 -7 -3 -12 -16 -11 -29 2 -18 -1 -22 -13 -18 -9 4
-13 3 -10 -1 10 -11 -43 -66 -64 -66 -9 0 -20 -7 -23 -15 -4 -8 -10 -15 -16
-15 -5 0 -6 5 -2 12 4 7 -8 1 -26 -12 -18 -13 -31 -19 -27 -13 4 7 -2 10 -17
9 -20 -1 -22 -4 -13 -15 10 -12 9 -12 -10 -3 -16 9 -24 9 -29 1 -4 -8 -9 -7
-15 2 -7 11 -9 11 -9 -1 0 -13 -1 -13 -10 0 -5 8 -10 10 -10 5 0 -6 -9 -11
-20 -11 -11 0 -20 5 -20 11 0 5 -5 3 -10 -5 -9 -13 -11 -13 -20 0 -8 12 -10
12 -10 1 0 -11 -3 -11 -17 0 -9 8 -14 9 -10 2 5 -7 0 -9 -13 -6 -11 3 -18 8
-16 12 2 3 -6 6 -19 6 -13 0 -21 -3 -19 -7 2 -3 -5 -4 -16 -1 -11 3 -20 9 -20
13 0 10 -20 8 -39 -4 -9 -6 -12 -5 -8 0 3 6 -3 15 -13 22 -12 7 -21 8 -25 2
-4 -6 -11 -8 -16 -4 -5 3 -7 10 -4 15 3 5 -8 7 -25 5 -17 -2 -33 1 -37 7 -4 6
-1 7 7 2 9 -5 11 -4 6 4 -4 6 -12 9 -17 5 -5 -3 -15 -1 -22 4 -7 5 -27 14 -46
20 -27 10 -32 9 -28 -2 3 -8 3 -17 0 -20 -9 -8 -8 -70 1 -84 4 -7 3 -12 -2
-12 -10 0 -9 -36 1 -46 10 -10 9 -26 -1 -20 -10 6 -9 -25 2 -42 4 -6 3 -12 -2
-12 -10 0 -9 -30 2 -48 4 -7 2 -12 -4 -12 -7 0 -5 -6 4 -15 18 -18 40 -20 30
-2 -9 13 26 -11 38 -28 5 -6 8 -6 8 2 0 14 23 11 44 -6 14 -12 16 -11 9 4 -6
18 -5 18 17 2 29 -20 44 -22 34 -4 -5 9 -4 9 6 0 7 -6 19 -9 28 -6 9 4 13 2 9
-4 -7 -11 34 -9 54 3 7 4 10 3 6 -3 -4 -6 0 -14 9 -17 11 -4 15 -2 11 8 -4 10
-1 13 8 9 8 -3 13 -8 10 -12 -6 -11 39 -7 47 4 5 6 8 5 8 -2 0 -7 7 -10 15 -7
9 4 15 0 15 -7 0 -12 2 -12 9 0 5 8 16 11 24 8 8 -3 20 0 27 6 10 9 11 9 5 -2
-6 -11 -4 -13 8 -8 10 4 17 1 17 -6 0 -7 3 -8 8 -2 10 15 62 16 62 2 0 -7 5
-4 11 6 8 14 14 16 25 6 11 -9 14 -8 14 2 0 11 2 11 10 -1 5 -8 10 -10 10 -4
0 6 10 9 24 7 13 -3 34 0 46 7 18 10 21 10 14 -2 -6 -10 -5 -11 8 -1 8 7 18
10 22 5 4 -4 12 1 17 11 8 14 14 15 31 6 15 -8 22 -8 28 0 4 7 15 9 25 5 14
-6 16 -4 10 6 -6 10 -3 12 14 7 15 -3 32 3 53 21 18 15 29 22 25 16 -3 -6 0
-11 8 -11 8 0 12 4 9 9 -3 4 0 8 6 8 6 0 9 4 6 9 -4 5 2 8 11 6 10 -1 26 7 36
19 10 11 16 14 12 6 -3 -8 2 -5 11 7 9 13 23 23 32 23 8 0 13 3 9 6 -8 8 25
44 35 38 4 -3 5 2 2 11 -4 10 -2 15 7 13 9 -2 14 5 13 19 -1 13 3 20 7 17 8
-5 13 10 10 29 0 4 4 7 10 7 5 0 7 5 4 10 -3 6 -1 10 5 10 6 0 8 5 5 10 -3 6
-2 10 4 10 5 0 7 14 5 30 -3 18 -1 30 6 30 6 0 8 -5 4 -12 -4 -7 -3 -8 5 -4 6
4 8 13 4 19 -12 19 -12 37 -1 37 7 0 6 5 -1 14 -7 8 -8 17 -3 20 10 6 9 36 -1
53 -4 6 -1 14 5 16 10 4 9 6 -1 6 -11 1 -11 4 0 18 12 14 12 16 0 8 -11 -6
-13 -4 -8 8 3 9 2 19 -4 22 -5 4 -7 17 -5 31 3 13 1 22 -4 19 -4 -3 -11 2 -14
11 -3 9 -2 12 5 8 6 -3 4 8 -5 24 -9 17 -20 34 -26 37 -6 4 -8 11 -5 16 4 5 0
9 -8 9 -7 0 -20 11 -27 25 -7 14 -17 25 -22 25 -5 0 -6 4 -3 10 3 5 0 7 -8 4
-8 -3 -18 0 -23 7 -5 8 -3 10 7 4 12 -8 12 -6 0 8 -7 9 -17 15 -21 12 -5 -3
-15 2 -23 10 -9 8 -20 15 -26 15 -6 0 -11 6 -11 13 0 8 -4 7 -10 -3 -8 -13
-10 -12 -10 3 0 9 -5 17 -11 17 -5 0 -7 -6 -3 -12 4 -7 -2 -5 -13 5 -11 9 -25
17 -31 17 -6 0 -14 6 -18 13 -4 6 -4 9 1 5 4 -4 15 -2 23 5 11 8 13 8 9 0 -5
-8 -1 -8 18 0 14 7 25 15 25 19 0 4 9 5 20 3 11 -2 18 0 15 6 -6 8 8 13 28 10
5 -1 6 3 2 9 -3 5 1 10 10 10 9 0 13 5 10 10 -3 6 1 10 9 10 8 0 20 9 26 20 6
11 14 18 19 16 4 -3 13 11 20 30 7 18 17 34 22 34 6 0 8 4 5 8 -3 5 1 21 9 36
8 14 12 33 8 41 -3 8 0 15 7 15 10 0 10 3 0 15 -8 9 -9 15 -2 15 10 0 8 37 -3
48 -2 3 0 11 6 19 8 8 8 13 1 13 -12 0 -11 18 2 40 5 8 5 11 1 7 -5 -4 -15 9
-21 30 -23 70 -43 118 -44 103 0 -13 -2 -13 -9 0 -6 8 -7 18 -5 22 3 4 0 8 -5
8 -15 0 -51 37 -51 53 0 8 -4 7 -10 -3 -6 -10 -10 -11 -10 -2 0 6 -8 12 -17
12 -9 0 -13 3 -10 7 9 8 -40 33 -70 35 -13 2 -23 9 -23 18 0 13 -1 13 -10 0
-6 -9 -10 -11 -10 -3 0 7 -7 10 -17 6 -9 -4 -14 -2 -10 3 3 6 -3 11 -14 11
-12 1 -17 -2 -13 -10 4 -7 -4 -2 -17 10 -20 18 -28 20 -37 11 -9 -9 -12 -9
-12 1 0 10 -3 11 -14 2 -8 -7 -17 -8 -20 -3 -3 5 -17 12 -30 14 -19 4 -23 1
-18 -11 5 -15 4 -15 -14 0 -10 8 -30 14 -44 12 -73 -8 -87 -8 -104 7 -13 10
-17 11 -12 2z"/>
<path d="M4086 2197 c2 -8 -7 -12 -27 -13 -20 -1 -26 2 -17 7 10 7 9 9 -4 9
-10 0 -18 -4 -18 -10 0 -6 -9 -6 -24 0 -18 6 -28 5 -36 -5 -7 -8 -17 -12 -23
-8 -17 10 -47 11 -41 1 3 -4 -1 -9 -8 -9 -7 -1 -17 -2 -23 -4 -5 -1 -16 -3
-23 -3 -8 -1 -10 -7 -6 -14 5 -10 4 -10 -6 -1 -14 13 -43 6 -34 -8 3 -5 -2 -6
-10 -3 -9 3 -16 1 -16 -6 0 -6 -4 -9 -9 -5 -5 3 -12 1 -16 -5 -4 -6 -10 -8
-14 -6 -4 3 -19 -5 -32 -17 -13 -12 -27 -21 -31 -19 -5 1 -8 -3 -8 -9 0 -5 -6
-7 -12 -3 -9 6 -9 3 0 -9 12 -14 11 -16 -7 -12 -11 2 -20 1 -20 -3 1 -4 1 -14
0 -22 -1 -13 -2 -13 -11 0 -5 8 -10 10 -10 4 0 -5 -9 -20 -20 -32 -12 -12 -18
-22 -15 -22 3 0 0 -6 -7 -14 -7 -8 -17 -11 -23 -8 -5 3 -3 -3 5 -13 8 -10 10
-16 4 -12 -7 4 -14 -2 -17 -14 -4 -14 -10 -18 -19 -13 -9 5 -8 2 2 -11 8 -10
10 -16 3 -12 -6 4 -14 3 -17 -2 -4 -5 -2 -12 4 -16 15 -10 0 -27 -17 -20 -13
4 -13 3 -4 -9 9 -11 8 -17 -4 -29 -17 -17 -20 -32 -6 -22 6 3 9 -3 8 -14 0
-11 -5 -17 -10 -14 -5 3 -8 -3 -7 -13 4 -33 0 -45 -11 -38 -8 5 -8 1 0 -14 14
-26 14 -35 0 -26 -8 5 -9 2 -1 -12 6 -11 7 -27 1 -42 -6 -15 -5 -21 1 -17 6 3
10 -1 10 -10 0 -10 -5 -13 -12 -9 -10 6 -10 4 0 -8 7 -9 11 -22 10 -29 -2 -8
3 -13 10 -11 8 1 11 -2 7 -8 -3 -6 -11 -8 -16 -5 -5 4 -9 1 -9 -4 0 -6 5 -11
11 -11 5 0 7 -4 4 -10 -3 -5 -2 -10 4 -10 7 0 7 -8 1 -24 -8 -21 -6 -24 9 -21
10 2 18 -3 18 -10 0 -8 -5 -11 -11 -8 -6 3 -1 -5 12 -19 12 -13 19 -28 15 -32
-5 -4 -1 -13 8 -19 16 -12 19 -18 19 -38 0 -6 7 -8 16 -5 8 3 12 2 9 -3 -3 -5
-1 -12 5 -16 6 -4 8 -10 5 -15 -3 -5 4 -11 15 -15 11 -4 28 -17 36 -31 9 -13
23 -24 31 -24 8 0 11 -4 8 -10 -3 -5 1 -11 9 -11 9 -1 21 -2 27 -3 6 0 16 -9
23 -18 15 -20 31 -25 20 -5 -9 13 26 -11 38 -28 5 -6 8 -4 8 4 0 11 4 10 16
-5 8 -10 12 -12 8 -4 -6 12 -5 13 7 4 8 -5 21 -10 29 -9 8 0 21 -6 28 -15 8
-8 11 -9 7 -2 -7 14 11 17 20 2 3 -5 12 -10 18 -10 7 0 6 4 -3 11 -12 9 -11
10 5 4 37 -13 76 -15 69 -4 -4 8 -1 8 12 1 11 -5 25 -7 33 -4 9 3 11 0 6 -9
-5 -8 0 -6 12 3 21 19 48 25 38 8 -9 -15 2 -12 19 6 10 10 16 11 16 3 0 -8 3
-9 14 0 7 6 22 8 31 4 14 -5 16 -3 10 7 -6 10 -4 12 8 7 10 -3 17 -2 17 4 0 6
5 7 10 4 6 -3 10 -1 10 6 0 8 4 8 15 -1 13 -11 14 -10 9 4 -4 12 0 16 15 16
12 0 21 5 21 11 0 5 5 7 10 4 6 -3 10 -2 10 3 0 6 7 13 16 16 8 3 13 2 9 -3
-3 -5 1 -12 7 -14 9 -4 10 -8 2 -14 -6 -4 -10 -18 -9 -30 1 -13 -2 -23 -7 -23
-4 0 -8 -5 -8 -11 0 -5 6 -7 13 -3 9 6 9 5 0 -8 -7 -8 -10 -18 -6 -21 3 -4 1
-7 -6 -7 -8 0 -11 -7 -7 -15 3 -9 -1 -18 -9 -22 -9 -3 -14 -10 -13 -17 3 -18
-12 -56 -23 -56 -6 0 -7 -5 -4 -10 4 -6 -4 -20 -17 -31 -13 -11 -16 -18 -8
-14 8 4 6 0 -4 -9 -10 -8 -23 -13 -27 -10 -5 3 -6 -2 -3 -11 4 -10 2 -15 -7
-13 -8 2 -13 -3 -11 -10 1 -8 -3 -12 -10 -10 -7 3 -21 -4 -30 -15 -10 -11 -18
-17 -18 -12 0 4 -12 0 -26 -10 -15 -9 -24 -13 -20 -7 7 12 -20 10 -31 -3 -4
-4 -2 -5 6 0 10 5 12 4 7 -3 -5 -9 -13 -9 -26 -2 -16 9 -19 8 -13 -7 5 -15 3
-16 -7 -6 -10 9 -17 10 -27 2 -9 -9 -13 -8 -13 0 0 7 -5 9 -12 5 -19 -12 -72
-12 -80 0 -5 8 -11 7 -19 -1 -10 -10 -15 -9 -26 5 -8 9 -12 11 -8 5 7 -16 -11
-17 -20 -3 -4 6 -15 8 -26 5 -10 -4 -19 -2 -19 4 0 5 -9 8 -20 6 -11 -2 -20 0
-20 6 0 5 -5 9 -11 9 -5 0 -7 -6 -3 -13 4 -6 -2 -4 -13 6 -11 9 -23 14 -26 10
-4 -3 -7 -1 -7 6 0 8 -7 11 -15 7 -8 -3 -15 -1 -15 4 0 5 -7 6 -17 3 -10 -4
-14 -2 -9 5 4 6 -3 16 -16 23 -21 11 -22 11 -9 -5 8 -9 10 -16 5 -15 -23 4
-30 -4 -29 -36 1 -19 4 -37 8 -41 3 -4 2 -15 -4 -25 -7 -14 -6 -19 3 -19 6 0
4 -6 -7 -13 -14 -11 -15 -16 -5 -22 9 -6 11 -4 5 6 -5 8 -5 11 0 7 10 -10 13
-68 3 -61 -5 2 -8 -1 -8 -6 0 -6 6 -11 13 -11 7 0 8 -3 2 -8 -12 -8 -16 -44
-5 -37 4 3 11 -2 14 -11 3 -8 11 -12 16 -9 6 4 17 1 25 -5 12 -10 15 -10 15 1
0 8 6 6 16 -7 8 -10 12 -12 8 -4 -7 12 -5 13 8 3 8 -7 18 -10 21 -6 4 3 7 2 7
-3 0 -9 29 -15 83 -17 9 -1 17 -5 17 -9 0 -5 8 -4 18 1 12 6 23 5 36 -5 10 -7
24 -10 30 -6 18 11 36 11 43 0 4 -7 1 -8 -7 -3 -9 5 -11 4 -6 -4 5 -7 12 -9
19 -3 18 13 57 12 57 -1 0 -6 7 -2 16 9 8 10 12 13 8 5 -5 -10 -1 -11 15 -6
14 4 21 2 21 -7 0 -8 5 -6 11 5 6 10 15 14 22 10 19 -12 36 -12 44 -1 3 6 1 8
-5 4 -6 -3 -13 -2 -16 3 -7 10 20 9 30 -2 4 -3 15 -2 25 4 14 7 19 6 19 -3 0
-10 2 -10 8 -1 4 6 21 13 37 15 17 2 33 7 37 12 5 8 15 10 61 15 5 1 5 5 2 11
-5 9 15 15 38 11 4 0 7 4 7 9 0 6 11 15 25 22 13 6 21 16 18 22 -4 6 1 5 10
-3 15 -12 17 -11 17 3 0 9 7 16 15 16 8 0 15 5 15 11 0 6 7 8 16 5 15 -6 15
-4 3 11 -7 10 -10 15 -5 11 5 -4 23 8 41 27 18 18 36 31 40 27 3 -3 3 2 -1 12
-5 14 -4 17 4 12 10 -6 18 8 10 17 -7 6 28 34 36 29 5 -3 6 0 2 7 -4 6 0 14 8
17 9 3 14 10 11 14 -3 5 6 29 20 54 14 25 22 46 18 46 -4 0 2 7 13 16 10 8 13
13 7 9 -7 -3 -13 -1 -13 4 0 6 5 11 11 11 5 0 7 5 4 10 -3 6 -1 10 4 10 6 0
11 7 11 16 0 9 -5 13 -12 9 -7 -4 -5 0 4 8 10 8 15 17 11 21 -4 4 -1 11 7 16
11 7 12 10 2 10 -7 0 -10 5 -7 10 4 6 11 8 16 5 5 -4 5 5 -1 20 -7 17 -7 24 0
20 14 -9 12 8 -2 24 -10 11 -10 13 0 7 6 -4 13 -2 13 3 1 6 2 17 3 24 1 6 -3
18 -8 26 -8 11 -8 13 2 7 8 -5 12 0 13 13 2 72 1 99 -5 109 -4 7 -2 12 3 12 6
0 11 5 11 11 0 5 -3 8 -7 6 -5 -3 -8 23 -8 58 0 35 3 61 7 59 4 -3 5 2 2 10
-3 9 -11 16 -18 16 -7 0 -6 4 3 9 9 6 10 10 2 16 -9 5 -9 10 0 21 9 11 9 14
-1 14 -8 0 -10 3 -7 6 3 4 2 16 -4 27 -8 14 -8 18 0 13 6 -4 11 -3 11 2 0 6
-6 12 -13 15 -8 3 -13 21 -12 50 0 33 -3 43 -11 37 -7 -7 -10 -3 -8 13 1 12
-5 33 -13 46 -9 13 -10 20 -3 16 8 -5 8 -1 -1 13 -7 12 -18 18 -24 14 -5 -3
-3 3 5 13 12 15 12 17 1 10 -11 -6 -13 -4 -8 8 3 8 -1 21 -8 27 -8 7 -12 16
-9 21 3 5 2 8 -3 7 -4 -2 -9 2 -11 7 -2 6 -13 16 -25 23 -19 12 -19 13 -2 7
14 -4 10 4 -15 27 -19 19 -38 32 -42 30 -4 -2 -5 4 -2 12 4 11 0 16 -11 16 -9
0 -13 5 -10 10 3 6 -1 10 -9 10 -9 0 -16 5 -16 10 0 6 -7 10 -16 10 -8 0 -13
4 -10 9 7 11 -61 44 -73 36 -5 -3 -13 0 -17 6 -5 8 -3 9 7 4 12 -8 12 -6 0 8
-7 9 -16 15 -20 12 -4 -2 -20 2 -35 10 -14 8 -24 10 -21 5 3 -5 -8 -2 -25 7
-17 8 -37 12 -45 9 -8 -3 -15 0 -15 6 0 7 -4 7 -14 -1 -11 -9 -15 -8 -20 5 -5
13 -9 14 -20 5 -11 -10 -17 -8 -25 6 -9 15 -10 15 -11 2 0 -9 -7 -16 -15 -16
-8 0 -12 4 -10 8 3 4 -2 9 -10 12 -8 4 -12 1 -9 -6z m-356 -91 c0 -2 -8 -10
-17 -17 -16 -13 -17 -12 -4 4 13 16 21 21 21 13z m346 -189 c8 3 21 0 29 -7
13 -11 14 -10 9 5 -7 16 -6 16 18 1 13 -9 28 -13 31 -9 4 3 7 1 7 -5 0 -7 6
-12 13 -12 6 0 23 -12 37 -27 14 -15 18 -23 10 -18 -8 4 -5 -2 8 -14 12 -12
20 -26 17 -31 -3 -4 1 -10 9 -13 9 -4 12 -14 9 -26 -3 -14 -1 -21 8 -21 11 0
11 -3 -1 -11 -11 -8 -12 -12 -3 -15 8 -4 10 -16 6 -36 -5 -25 -3 -29 8 -23 11
7 12 6 3 -6 -5 -8 -10 -26 -9 -41 0 -16 -4 -28 -10 -28 -5 0 -3 -5 5 -10 13
-9 13 -10 0 -10 -13 0 -13 -1 0 -10 12 -8 12 -10 -3 -16 -15 -5 -15 -9 -5 -22
11 -13 11 -14 -1 -7 -11 6 -13 4 -8 -9 4 -10 1 -19 -8 -23 -13 -4 -13 -8 -3
-21 10 -12 10 -14 1 -8 -8 4 -13 1 -13 -9 0 -9 -4 -13 -10 -10 -5 3 -10 1 -10
-5 0 -6 -5 -8 -12 -4 -7 4 -8 3 -4 -5 4 -6 0 -14 -8 -17 -9 -3 -13 -10 -10
-15 3 -5 0 -9 -5 -9 -6 0 -11 6 -12 13 0 9 -2 9 -6 -1 -2 -6 -9 -10 -14 -6 -5
3 -9 0 -9 -6 0 -6 -4 -8 -10 -5 -5 3 -10 1 -10 -6 0 -8 -5 -7 -17 2 -20 17
-16 17 -36 0 -13 -10 -17 -10 -17 -1 0 9 -3 10 -13 1 -10 -8 -19 -6 -35 9 -12
12 -23 16 -27 10 -10 -17 -25 -11 -18 7 4 11 3 14 -5 9 -7 -4 -12 -2 -12 4 0
6 -4 8 -10 5 -6 -4 -7 1 -3 11 4 12 3 15 -5 10 -7 -4 -12 -1 -12 8 0 9 -5 16
-11 16 -5 0 -8 4 -5 9 4 5 1 11 -5 13 -7 2 -14 20 -16 38 -2 19 -5 44 -6 55
-1 11 -6 23 -12 27 -6 5 -5 8 2 8 9 0 10 7 3 24 -5 13 -6 27 -3 30 10 10 9 51
-2 58 -6 5 -6 8 3 8 6 0 12 9 12 21 0 12 4 17 11 13 8 -4 8 0 0 15 -11 20 -8
25 12 22 5 -1 6 8 2 19 -4 12 -2 20 5 20 6 0 14 8 17 18 9 23 29 42 37 35 3
-4 6 -1 6 6 0 7 5 9 10 6 6 -3 10 -2 10 3 0 8 14 12 53 13 9 0 17 6 18 12 0 9
2 9 5 0 3 -7 12 -9 20 -6z"/>
<path d="M2650 1826 c0 -2 8 -10 18 -17 15 -13 16 -12 3 4 -13 16 -21 21 -21
13z"/>
<path d="M3490 1359 c0 -5 5 -7 10 -4 6 3 10 8 10 11 0 2 -4 4 -10 4 -5 0 -10
-5 -10 -11z"/>
<path d="M3067 1279 c7 -7 15 -10 18 -7 3 3 -2 9 -12 12 -14 6 -15 5 -6 -5z"/>
<path d="M2715 940 c3 -5 8 -10 11 -10 2 0 4 5 4 10 0 6 -5 10 -11 10 -5 0 -7
-4 -4 -10z"/>
</g>
</svg>
